<?xml version="1.0" encoding="UTF-8" standalone="no"?>
<svg
   xmlns:dc="http://purl.org/dc/elements/1.1/"
   xmlns:cc="http://creativecommons.org/ns#"
   xmlns:rdf="http://www.w3.org/1999/02/22-rdf-syntax-ns#"
   xmlns:svg="http://www.w3.org/2000/svg"
   xmlns="http://www.w3.org/2000/svg"
   xmlns:sodipodi="http://sodipodi.sourceforge.net/DTD/sodipodi-0.dtd"
   xmlns:inkscape="http://www.inkscape.org/namespaces/inkscape"
   width="66"
   height="67"
   viewBox="0 0 66 67"
   fill="none"
   version="1.1"
   id="svg4"
   sodipodi:docname="Vector.svg">
  <metadata
     id="metadata10">
    <rdf:RDF>
      <cc:Work
         rdf:about="">
        <dc:format>image/svg+xml</dc:format>
        <dc:type
           rdf:resource="http://purl.org/dc/dcmitype/StillImage" />
      </cc:Work>
    </rdf:RDF>
  </metadata>
  <defs
     id="defs8" />
  <sodipodi:namedview
     pagecolor="#ffffff"
     bordercolor="#666666"
     borderopacity="1"
     objecttolerance="10"
     gridtolerance="10"
     guidetolerance="10"
     inkscape:pageopacity="0"
     inkscape:pageshadow="2"
     inkscape:window-width="640"
     inkscape:window-height="480"
     id="namedview6" />
  <path
     d="M0 10.3319H15.4301V15.8951H0V10.3319ZM0 0H15.4301V5.56321H0V0ZM27.6839 20.5842H0V26.1474H26.6465C29.5639 26.1474 36.3712 26.2267 38.8998 31.2337V28.1343C37.668 23.2066 34.0374 20.5842 27.6836 20.5842H27.6839ZM27.7484 30.9158H0V36.479H26.6465C33.1297 36.479 37.2142 36.7969 38.8998 37.9097V35.4458C37.603 31.5516 32.1572 30.9158 27.7486 30.9158H27.7484ZM27.6839 57.1425H0V51.5793H26.6465C29.5639 51.5793 36.3712 51.4999 38.8998 46.4929V49.5923C37.668 54.52 34.0374 57.1425 27.6836 57.1425H27.6839ZM27.7484 46.8109H0V41.2477H26.6465C33.1297 41.2477 37.2142 40.9297 38.8998 39.817V42.2808C37.603 46.175 32.1572 46.8109 27.7486 46.8109H27.7484ZM45.6424 66.7592H66V63.3415H46.2258C44.4752 63.3415 40.3263 63.2622 38.8351 60.3215V62.2291C39.5482 65.1695 41.7525 66.7592 45.6424 66.7592ZM45.5776 60.4805H65.9353V57.0631H46.2258C42.2709 57.0631 39.8073 56.9042 38.8348 56.189V57.699C39.6126 60.0832 42.9191 60.4805 45.5774 60.4805H45.5776Z"
     fill="currentColor"
     id="path2" />
</svg>
